<?xml version="1.0" standalone="no"?>
<!DOCTYPE svg PUBLIC "-//W3C//DTD SVG 20010904//EN"
 "http://www.w3.org/TR/2001/REC-SVG-20010904/DTD/svg10.dtd">
<svg version="1.0" xmlns="http://www.w3.org/2000/svg"
 width="980.000000pt" height="980.000000pt" viewBox="0 0 980.000000 980.000000"
 preserveAspectRatio="xMidYMid meet">
<metadata>
Created by potrace 1.14, written by Peter Selinger 2001-2017
</metadata>
<g transform="translate(0.000000,980.000000) scale(0.100000,-0.100000)"
fill="#000000" stroke="none">
<path d="M2804 9740 c-153 -8 -198 -25 -262 -95 -81 -87 -112 -184 -112 -347
l0 -108 750 0 750 0 0 103 c0 196 -40 306 -137 379 -90 68 -104 71 -503 73
-195 2 -414 0 -486 -5z"/>
<path d="M4545 9120 c-28 -4 -66 -15 -85 -25 -50 -26 -133 -113 -160 -170
l-25 -50 -3 -407 -4 -408 791 0 791 0 0 183 c-1 268 -17 583 -35 647 -20 76
-58 125 -143 184 l-73 51 -502 1 c-276 1 -525 -2 -552 -6z"/>
<path d="M315 9040 c-70 -8 -117 -27 -180 -70 -76 -52 -135 -182 -135 -297 l0
-63 1090 0 1090 0 -6 33 c-17 95 -36 162 -58 205 -57 112 -143 174 -262 192
-79 11 -1444 11 -1539 0z"/>
<path d="M2430 8815 l0 -155 750 0 750 0 0 155 0 155 -750 0 -750 0 0 -155z"/>
<path d="M2430 4900 l0 -3520 750 0 750 0 0 3520 0 3520 -750 0 -750 0 0
-3520z"/>
<path d="M0 8230 l0 -150 1085 0 1085 0 0 150 0 150 -1085 0 -1085 0 0 -150z"/>
<path d="M0 4555 l0 -3295 1085 0 1085 0 0 3295 0 3295 -1085 0 -1085 0 0
-3295z"/>
<path d="M4270 7690 l0 -160 791 0 792 0 -7 152 c-4 84 -8 153 -9 154 -1 1
-354 4 -784 7 l-783 6 0 -159z"/>
<path d="M7690 7461 c-334 -75 -1028 -248 -1332 -332 -141 -40 -152 -44 -202
-90 -123 -113 -135 -272 -45 -629 38 -152 55 -191 83 -185 292 64 1770 425
2115 516 l43 12 -6 51 c-16 119 -120 481 -157 542 -38 63 -178 140 -272 149
-38 3 -99 -6 -227 -34z"/>
<path d="M4270 4595 l0 -2705 790 0 790 0 0 2705 0 2705 -790 0 -790 0 0
-2705z"/>
<path d="M8285 6491 c-60 -15 -546 -134 -1080 -265 -533 -130 -975 -239 -982
-241 -8 -3 -2 -42 23 -136 19 -73 34 -134 34 -136 0 -15 193 26 830 177 445
105 1212 294 1303 321 l69 21 -6 48 c-9 67 -59 233 -71 236 -5 1 -59 -10 -120
-25z"/>
<path d="M8485 5983 c-573 -136 -1520 -370 -1797 -443 -298 -79 -328 -89 -328
-107 0 -56 857 -3586 925 -3812 l16 -53 47 7 c212 30 2104 503 2133 532 8 9
-14 103 -251 1082 -469 1939 -665 2732 -681 2764 -12 22 -29 38 -39 36 -3 -1
-14 -3 -25 -6z"/>
<path d="M9350 1813 c-597 -144 -1977 -487 -1984 -493 -4 -5 1 -52 13 -107 31
-143 40 -173 56 -173 30 0 1906 448 2133 509 40 11 42 14 42 50 0 44 -34 181
-56 223 -18 35 -22 35 -204 -9z"/>
<path d="M4270 1500 l0 -160 790 0 790 0 0 160 0 160 -790 0 -790 0 0 -160z"/>
<path d="M9565 1309 c-44 -10 -147 -35 -230 -55 -449 -108 -1849 -455 -1853
-459 -7 -7 75 -323 120 -463 35 -108 46 -128 85 -167 24 -25 74 -59 111 -77
110 -53 113 -53 827 113 336 79 825 200 927 230 90 26 163 93 213 191 31 62
35 80 35 145 0 117 -91 505 -127 545 -9 10 -19 18 -22 17 -3 0 -42 -9 -86 -20z"/>
<path d="M2430 985 l0 -155 750 0 750 0 0 155 0 155 -750 0 -750 0 0 -155z"/>
<path d="M4272 713 c3 -401 3 -409 26 -454 27 -56 99 -130 158 -165 67 -40
188 -47 654 -41 549 7 567 12 674 169 l56 83 0 401 0 401 -137 6 c-75 4 -428
7 -785 7 l-649 0 3 -407z"/>
<path d="M0 864 l0 -155 1074 3 c591 2 1077 6 1081 9 3 4 9 73 12 153 l6 146
-1086 0 -1087 0 0 -156z"/>
<path d="M2432 478 c4 -106 9 -145 27 -191 44 -112 130 -196 223 -217 71 -15
794 -25 915 -12 103 11 156 33 216 90 84 80 117 181 117 360 l0 102 -751 0
-751 0 4 -132z"/>
<path d="M0 423 c1 -119 58 -228 164 -312 l61 -48 725 -6 c786 -7 942 -2 1009
33 56 28 117 84 145 134 33 56 68 169 64 203 -7 59 22 58 -1125 61 l-1043 3 0
-68z"/>
</g>
</svg>
